<?xml version="1.0" encoding="utf-8"?>
<!-- Generator: Adobe Illustrator 24.3.0, SVG Export Plug-In . SVG Version: 6.00 Build 0)  -->
<svg version="1.1" id="Layer_1" xmlns="http://www.w3.org/2000/svg" xmlns:xlink="http://www.w3.org/1999/xlink" x="0px" y="0px"
	 viewBox="0 0 576 674" style="enable-background:new 0 0 576 674;" xml:space="preserve">
<path d="M560,226c8.8,0,16-7.2,16-16v-32c0-8.8-7.2-16-16-16H16c-8.8,0-16,7.2-16,16v32c0,8.8,7.2,16,16,16h16v384H16
	c-8.8,0-16,7.2-16,16v32c0,8.8,7.2,16,16,16h240v-80c0-8.8,7.2-16,16-16h32c8.8,0,16,7.2,16,16v80h240c8.8,0,16-7.2,16-16v-32
	c0-8.8-7.2-16-16-16h-16V226H560z M256,270.8c0-6.4,6.4-12.8,12.8-12.8h38.4c6.4,0,12.8,6.4,12.8,12.8v38.4
	c0,6.4-6.4,12.8-12.8,12.8h-38.4c-6.4,0-12.8-6.4-12.8-12.8L256,270.8L256,270.8z M256,366.8c0-6.4,6.4-12.8,12.8-12.8h38.4
	c6.4,0,12.8,6.4,12.8,12.8v38.4c0,6.4-6.4,12.8-12.8,12.8h-38.4c-6.4,0-12.8-6.4-12.8-12.8L256,366.8L256,366.8z M128,270.8
	c0-6.4,6.4-12.8,12.8-12.8h38.4c6.4,0,12.8,6.4,12.8,12.8v38.4c0,6.4-6.4,12.8-12.8,12.8h-38.4c-6.4,0-12.8-6.4-12.8-12.8L128,270.8
	L128,270.8z M179.2,418h-38.4c-6.4,0-12.8-6.4-12.8-12.8v-38.4c0-6.4,6.4-12.8,12.8-12.8h38.4c6.4,0,12.8,6.4,12.8,12.8v38.4
	C192,411.6,185.6,418,179.2,418L179.2,418z M192,546c0-53,43-96,96-96s96,43,96,96H192z M448,405.2c0,6.4-6.4,12.8-12.8,12.8h-38.4
	c-6.4,0-12.8-6.4-12.8-12.8v-38.4c0-6.4,6.4-12.8,12.8-12.8h38.4c6.4,0,12.8,6.4,12.8,12.8V405.2L448,405.2z M448,309.2
	c0,6.4-6.4,12.8-12.8,12.8h-38.4c-6.4,0-12.8-6.4-12.8-12.8v-38.4c0-6.4,6.4-12.8,12.8-12.8h38.4c6.4,0,12.8,6.4,12.8,12.8V309.2z"
	/>
<g>
	<path d="M143.5,55.8h26.9c4.8,0,6.9,6.1,3,9l-21.9,16.4c-1.7,1.3-2.4,3.6-1.7,5.7l8.8,25.4c1.6,4.7-3.8,8.6-7.7,5.7l-22.5-16.7
		c-1.8-1.3-4.2-1.3-5.9,0l-21.8,16c-3.9,2.9-9.2-1-7.7-5.6l8.3-25.7c0.7-2,0-4.3-1.8-5.6L78.7,64.8c-3.9-2.9-1.8-9,3-9h26.1
		c2.2,0,4.1-1.4,4.8-3.4l8.2-24.4c1.5-4.5,7.9-4.6,9.5,0l8.5,24.5C139.4,54.4,141.3,55.8,143.5,55.8z"/>
</g>
<g>
	<path d="M305.5,55.8h26.9c4.8,0,6.9,6.1,3,9l-21.9,16.4c-1.7,1.3-2.4,3.6-1.7,5.7l8.8,25.4c1.6,4.7-3.8,8.6-7.7,5.7l-22.5-16.7
		c-1.8-1.3-4.2-1.3-5.9,0l-21.8,16c-3.9,2.9-9.2-1-7.7-5.6l8.3-25.7c0.7-2,0-4.3-1.8-5.6l-20.6-15.5c-3.9-2.9-1.8-9,3-9h26.1
		c2.2,0,4.1-1.4,4.8-3.4l8.2-24.4c1.5-4.5,7.9-4.6,9.5,0l8.5,24.5C301.4,54.4,303.3,55.8,305.5,55.8z"/>
</g>
<g>
	<path d="M467.5,55.8h26.9c4.8,0,6.9,6.1,3,9l-21.9,16.4c-1.7,1.3-2.4,3.6-1.7,5.7l8.8,25.4c1.6,4.7-3.8,8.6-7.7,5.7l-22.5-16.7
		c-1.8-1.3-4.2-1.3-5.9,0l-21.8,16c-3.9,2.9-9.2-1-7.7-5.6l8.3-25.7c0.7-2,0-4.3-1.8-5.6l-20.6-15.5c-3.9-2.9-1.8-9,3-9h26.1
		c2.2,0,4.1-1.4,4.8-3.4l8.2-24.4c1.5-4.5,7.9-4.6,9.5,0l8.5,24.5C463.4,54.4,465.3,55.8,467.5,55.8z"/>
</g>
</svg>
