<?xml version="1.0" encoding="utf-8"?>
<!-- Generator: Adobe Illustrator 24.3.0, SVG Export Plug-In . SVG Version: 6.00 Build 0)  -->
<svg version="1.1" id="Layer_1" xmlns="http://www.w3.org/2000/svg" xmlns:xlink="http://www.w3.org/1999/xlink" x="0px" y="0px"
	 viewBox="0 0 640 658" style="enable-background:new 0 0 640 658;" xml:space="preserve">
<g>
	<path d="M488.3,118.3c12,36.3,14.9,74.2,6.9,113.1c-9.6,46.9-32,87.4-62.7,123.2c-19.7,23-43.5,41.2-70.4,55.9
		c-21.1,11.5-44.4,15.2-66.5,23.1c-16.5,5.9-31.2,15.1-46.1,24c-8.9,5.4-17,12.2-25.8,17.9c-4.7,3-6.2,6-3.9,11.3
		c3.7,8.5,2,16.6-3,24.3c-24.3,37.8-48.4,75.7-72.7,113.4c-12.6,19.6-27.8,22.5-47.6,9.7c-14-9.1-28.4-17.7-42.3-26.9
		c-14.8-9.8-17.5-25.1-8-40.1c24.9-39.3,49.7-78.7,74.5-118.1c4.7-7.5,10.4-13.6,20.2-13.3c7.8,0.2,6.5-6.6,7.4-10.6
		c8.2-36.2,10.5-72.6,4.7-109.5c-7.4-48,2.2-92.9,23.1-136.4c15.9-33.1,37.3-61.8,64.3-86.2C265.8,70.5,295,55,327.8,45.5
		c31.1-9,61.6-9.5,91.4,3.2C450.9,62.2,473.5,85.7,488.3,118.3z M323.6,95.3c-7.6,3.1-15.7,5.4-22.7,9.6
		c-31.1,18.9-55.5,44.5-74.4,75.5c-24.8,40.6-35.9,84.2-28.9,131.6c6.3,42,32.9,69.9,73.2,74.8c31.3,3.8,59.8-7.1,85.1-24.4
		c53.8-36.7,86.3-87.7,97.9-151.9c5.9-32.5-1.6-62.8-17.1-91c-7-12.7-17.5-22.8-31.5-28.6C377.3,79.2,350.2,82.3,323.6,95.3z
		 M113.2,590.1c0.9-1.3,1.9-2.5,2.7-3.9c17.3-27.4,34.5-54.7,51.7-82.1c2.6-4.1,1.9-7.4-2.7-9.7c-2.9-1.5-5.8-3.1-8.4-5.1
		c-4.9-3.6-7.9-2.2-11,2.8c-16.2,26.1-32.6,52.1-49,78c-2.1,3.4-5.4,6.9-1.7,10.5C99.8,585.3,105.7,589,113.2,590.1z M191.1,444.6
		c11.2-7.6,19.8-15.6,30-21.3c2.5-1.4,3.7-4.2,0.4-6.3c-5.8-3.7-11.7-7.2-17.7-10.6c-3.8-2.1-6.2-1.1-6.9,3.4
		C195.1,420.8,193.3,431.7,191.1,444.6z"/>
</g>
<circle cx="556" cy="328.2" r="49.1"/>
</svg>
