<?xml version="1.0" encoding="utf-8"?>
<!-- Generator: Adobe Illustrator 24.3.0, SVG Export Plug-In . SVG Version: 6.00 Build 0)  -->
<svg version="1.1" id="Layer_1" xmlns="http://www.w3.org/2000/svg" xmlns:xlink="http://www.w3.org/1999/xlink" x="0px" y="0px"
	 viewBox="0 0 538 722" style="enable-background:new 0 0 538 722;" xml:space="preserve">
<path d="M159.4,144.4c19.2-18.3,19.9-48.7,1.6-67.9s-48.7-19.9-67.9-1.6s-19.9,48.7-1.6,67.9S140.3,162.7,159.4,144.4z M197.6,414
	l13.1,35.2l-48.4,46.1c-12.8,12.2-13.3,32.4-1.1,45.2c12.2,12.8,32.4,13.3,45.2,1.1l56.1-53.4c13.9-13.3,18.6-33.5,11.9-51.5
	l-7.8-20.9l-12.1,2.8C234.9,423.2,215.2,421,197.6,414L197.6,414z M328.8,159.9l-31.9,30.4l-55.6-20.6c-26.7-9.9-56.2-7.6-79.9,5.7
	l-66,33.7c-25.2,14.6-42.2,39.5-46.7,68.2L41,326.7c-2.7,17.5,9.2,33.8,26.7,36.6s33.8-9.2,36.6-26.7l7.8-49.4
	c1.5-9.6,7.1-17.8,14.1-21.9l13.7-7l33.2,89.1c11.2,30,43.2,47.2,74.4,40l96.1-22.3l40.6,82.5c7.8,15.8,27,22.4,42.8,14.6
	c3-1.5,5.7-3.3,8-5.5c9.9-9.4,12.9-24.4,6.6-37.3l-46.8-95c-10-19.1-31.8-29.2-53.2-24.5L272.2,316l-31.3-78.3l43.3,16
	c17.1,6.3,36.6,2.3,49.8-10.3l39.1-37.2c12.8-12.2,13.3-32.4,1.1-45.2C361.9,148.1,341.6,147.7,328.8,159.9L328.8,159.9z"/>
<path d="M203.9,407.2L122,441c-19.6,8.1-41.9-1.3-50-20.8L5.8,259.3c-8.1-19.6,1.3-41.9,20.8-50l81.9-33.7
	c19.6-8.1,41.9,1.3,50,20.8l66.3,160.9C232.8,376.8,223.5,399.2,203.9,407.2z"/>
<path d="M37.5,700.8c-9.9,0-19.6-4.9-25.3-13.9c-8.9-14-4.8-32.5,9.1-41.5c1.6-1,40.1-25.4,99.5-42.7c34.9-10.2,70-15.9,104.3-17
	c24.5-0.8,48.6,0.8,72.1,4.7c11.3,1.9,22.2-4.8,26-15.6c3.8-11.1,8.9-23.1,15.6-35c15-26.9,34.9-48.3,59.2-63.7
	c30-19,66.2-28.4,107.4-28c16.6,0.2,29.8,13.8,29.7,30.3c-0.2,16.5-13.6,29.7-30,29.7c-0.1,0-0.2,0-0.3,0
	c-51.8-0.6-89.6,19.4-112.6,59.3c-18.2,31.6-20.8,64.8-20.9,66.4c-0.5,9.3-5.3,17.8-13,23.1c-7.7,5.3-17.5,6.6-26.4,3.6
	c-60.1-19.8-124.8-20.1-192.4-0.7c-51.6,14.8-85.5,36-85.8,36.2C48.6,699.3,43,700.8,37.5,700.8z"/>
</svg>
