<?xml version="1.0" encoding="utf-8"?>
<!-- Generator: Adobe Illustrator 24.3.0, SVG Export Plug-In . SVG Version: 6.00 Build 0)  -->
<svg version="1.1" id="Layer_1" xmlns="http://www.w3.org/2000/svg" xmlns:xlink="http://www.w3.org/1999/xlink" x="0px" y="0px"
	 viewBox="0 0 448 512" style="enable-background:new 0 0 448 512;" xml:space="preserve">
<path d="M400,32H48C21.5,32,0,53.5,0,80v352c0,26.5,21.5,48,48,48h352c26.5,0,48-21.5,48-48V80C448,53.5,426.5,32,400,32z
	 M315.2,175.1h-57.9v190.7c0,23.3-15.4,30.2-33,30.2s-33-6.9-33-30.2V175.1h-58.5c-16.4,0-26.7-10.4-26.7-29.6
	c0-20.1,11-29.6,26.7-29.6h182.5c15.7,0,26.7,9.4,26.7,29.6C342,164.8,331.6,175.1,315.2,175.1z"/>
</svg>
