<?xml version="1.0" encoding="utf-8"?>
<!-- Generator: Adobe Illustrator 24.3.0, SVG Export Plug-In . SVG Version: 6.00 Build 0)  -->
<svg version="1.1" id="Layer_1" xmlns="http://www.w3.org/2000/svg" xmlns:xlink="http://www.w3.org/1999/xlink" x="0px" y="0px"
	 viewBox="0 0 448 512" style="enable-background:new 0 0 448 512;" xml:space="preserve">
<path d="M400,32H48C21.5,32,0,53.5,0,80v352c0,26.5,21.5,48,48,48h352c26.5,0,48-21.5,48-48V80C448,53.5,426.5,32,400,32z
	 M191,344.8c0,10.9-6.9,16-15.8,16h-9.4c-21-0.2-32.8-5.7-43-20.2c-23.2-33-29.6-39.5-38.5-39.5c-7.9,0-13.5,5.2-13.5,14.8
	c0,4.9,2.7,11.4,9.1,16.8c5,4.2,5,11.8-1.2,20.3c-6.7,9.2-13.6,7.9-20.2,3.5C43.9,346.7,39,329.7,39,315.4
	c0-33.8,20.7-47.9,44.2-47.9c16.5,0,28.6,5.4,39,20.2c21.7,30.8,28.8,38.5,36.8,39.3v-44.4c0-10.9,7.1-16,16-16s16,5,16,16V344.8z
	 M174.9,199H69.9l60.5,24.7v-5.5c0-10.9,7.1-16,16-16c8.9,0,16,5,16,16v25.4c0,8.6-4.9,13.8-13.8,13.8h-14.3c-2.2,0-4.5-0.2-6.1-0.8
	l-80.7-35c-5-2.2-7.6-6.1-7.7-10.8v-0.2v-0.8l-0.2-26.2V183v-0.2c0-9.2,3.7-15.8,16.1-15.8h74.7v-0.3c0-10.9,6.6-15.5,16-15.5
	s16,4.5,16,15.5v0.3h12.4c12.4,0,16.1,6.7,16.1,16C191,192.4,187.3,199,174.9,199z M375,361.9c0,20.9-14,26.9-29.8,26.9
	s-29.8-6-29.8-26.9V256.6c0-16.1-9.5-22.7-23.9-22.7c-15.8,0-29.8,12.5-29.8,27.2v100.9c0,20.9-14,26.9-29.8,26.9
	c-15.8,0-29.8-6-29.8-26.9V150.1c0-20.9,14.3-26.9,29.8-26.9c15.5,0,29.8,6,29.8,26.9v50.4c11.9-14,30.1-22.1,52.2-22.1
	c33.1,0,61.2,15.5,61.2,62.1V361.9z"/>
</svg>
