<?xml version="1.0" encoding="utf-8"?>
<!-- Generator: Adobe Illustrator 24.3.0, SVG Export Plug-In . SVG Version: 6.00 Build 0)  -->
<svg version="1.1" id="Layer_1" xmlns="http://www.w3.org/2000/svg" xmlns:xlink="http://www.w3.org/1999/xlink" x="0px" y="0px"
	 viewBox="0 0 640 512" style="enable-background:new 0 0 640 512;" xml:space="preserve">
<path d="M50.4,357.5h-9.7c-16.7,0-30.2-13.5-30.2-30.2V184.7c0-16.7,13.5-30.2,30.2-30.2h9.7c16.7,0,30.2,13.5,30.2,30.2v142.6
	C80.5,344,67,357.5,50.4,357.5z"/>
<path d="M599.3,357.5h-9.7c-16.7,0-30.2-13.5-30.2-30.2V184.7c0-16.7,13.5-30.2,30.2-30.2h9.7c16.7,0,30.2,13.5,30.2,30.2v142.6
	C629.5,344,616,357.5,599.3,357.5z"/>
<path d="M457.5,111.3v79.5c0,16.7-13.5,30.2-30.2,30.2H212.7c-16.7,0-30.2-13.5-30.2-30.2v-79.5c0-16.7-13.5-30.2-30.2-30.2h-9.7
	c-16.7,0-30.2,13.5-30.2,30.2v289.4c0,16.7,13.5,30.2,30.2,30.2h9.7c16.7,0,30.2-13.5,30.2-30.2v-79.5c0-16.7,13.5-30.2,30.2-30.2
	h214.7c16.7,0,30.2,13.5,30.2,30.2v79.5c0,16.7,13.5,30.2,30.2,30.2h9.7c16.7,0,30.2-13.5,30.2-30.2V111.3
	c0-16.7-13.5-30.2-30.2-30.2h-9.7C471,81.1,457.5,94.7,457.5,111.3z"/>
</svg>
