<?xml version="1.0" encoding="utf-8"?>
<!-- Generator: Adobe Illustrator 24.3.0, SVG Export Plug-In . SVG Version: 6.00 Build 0)  -->
<svg version="1.1" id="Layer_1" xmlns="http://www.w3.org/2000/svg" xmlns:xlink="http://www.w3.org/1999/xlink" x="0px" y="0px"
	 viewBox="0 0 512 512" style="enable-background:new 0 0 512 512;" xml:space="preserve">
<g>
	<path d="M347.1,210.6c-1.2-3.8-3-4.7-6.8-3.6c-8.1,2.3-16.4,4.3-24.8,6.5c-6.2-14.1-12.3-27.7-18.5-41.7c2.3-1.1,4.2-2,6.1-2.9
		c25.8-11.4,51.7-22.5,77.4-34.2c4.7-2.2,9.1-6,12.5-10c6.5-7.5,12.1-15.7,18.2-23.6c-3.4,11.2-7.4,22.1-11.9,32.7
		c-1,2.3-3,4.5-5.1,5.8c-9.8,6.1-19.8,11.8-29.6,17.7c-12.5,7.5-25,15-37.4,22.5c0.9,3.8,2.1,4.8,5.8,3.8c10-2.6,20.1-4.7,30.2-6.5
		c16.2-2.9,31.4-7.9,45.2-17.5c11-7.7,22.8-14.3,34.6-20.8c4.9-2.7,6.1-6.3,6.5-11.2c1.1-12.2,2.4-24.5,3.7-36.7
		c2.2-19.4,4.8-38.7,6.6-58.1c0.5-5.1,0.3-10.9-1.7-15.5c-7.8-18.1-30.5-19-42.6-2c-15.7,22.2-31.3,44.4-47.2,66.4
		c-2.6,3.5-6.5,6.7-10.5,8.5c-46,21.1-91.9,42.5-138.3,62.7c-19.2,8.4-31.1,30.9-18.9,53.2c9.3,17.1,17.1,35,25.8,52.4
		c1.9,3.8,1.4,6.2-1.3,9.3c-16.8,19.4-33.4,38.9-50.6,59.1c2.1,1.7,3.6,3.2,5.4,4.4c27,19.1,56.6,25.1,88.8,17.6
		C329.1,335,366.5,272.4,347.1,210.6z"/>
	<path d="M211.2,372.7c-19.7-5.3-36.8-14.1-52.5-26.9c-13,14.8-25.4,28.9-37.8,43c-20.8,23.6-41.8,47.2-62.5,70.9
		c-6.7,7.7-8.3,17.1-5.8,26.9c2.9,11.1,10.3,18.1,21.3,21.1c12.6,3.4,22.6-1.4,31-10.3c5.5-5.9,10.4-12.2,15.6-18.3
		c21.6-25.3,43.1-50.6,64.7-75.9C193.8,393.2,202.2,383.3,211.2,372.7z"/>
	<path d="M396.6,391c-0.1-1.7-1.2-3.7-2.5-4.8c-7.9-7.2-12.8-16.1-16.3-26c-5.9-16.9-11.8-33.7-17.3-49.5
		c-9,10.3-18.2,20.6-27.1,31.1c-1.1,1.3-1.4,3.6-1.4,5.4c0.3,7.6,0.9,15.2,1.4,22.9c1.5,22.8,2.9,45.7,4.5,68.5
		c1,15.2,1.6,30.5,3.7,45.5c2.4,17.5,17.7,25.5,30.7,24.8c15.8-0.9,28.1-13.9,27.9-29.1c-0.2-12.7-0.7-25.5-1.2-38.2
		C398.3,424.7,397.5,407.8,396.6,391z"/>
	<path d="M458,334.3c-14.7-38.5-30-76.7-44.1-115.3c-6-16.6-23.3-29.1-44-19.7c-0.1,0.8-0.3,1.2-0.2,1.6c0.2,0.9,0.5,1.9,0.8,2.8
		c5.3,16.5,8.7,33.9,5.6,50.7c-3,16,0.3,29.7,6.2,43.8c0.6,1.4,1,3,1.5,4.4c6.6,18.6,12.8,37.5,20.1,55.8
		c5.5,13.8,20.6,20.7,34.1,16.9C456.3,370.1,465,352.7,458,334.3z"/>
	<path d="M237.4,380c-23.6,27.5-47,55.1-70.4,82.7c-10.3,12.1-8.7,29.3,3.9,39.2c15.6,12.3,35.6,8.1,45.8-9.8
		c9.2-16.3,18.3-32.7,27.4-49c13.4-24,26.7-48,39.6-71.2c-13.6,1.6-27,3.2-40.5,5C241.1,377.3,238.7,378.5,237.4,380z"/>
	<path d="M202.1,135c22.6,0.8,42.6-19.4,41.7-43.8c-0.8-21.4-20.2-40.3-42.5-39.8c-23.6,0.5-42.7,19.9-41.2,45
		C161.3,117.1,180,136,202.1,135z"/>
	<path d="M310.2,86.8c22.4,0.2,41-17.9,41.9-39.4c1-23.7-17-43.7-41.4-44.3c-22.1-0.5-42.1,18.6-42.3,40
		C268.2,68.2,285.8,86.6,310.2,86.8z"/>
</g>
</svg>
