<?xml version="1.0" encoding="utf-8"?>
<!-- Generator: Adobe Illustrator 24.3.0, SVG Export Plug-In . SVG Version: 6.00 Build 0)  -->
<svg version="1.1" id="Layer_1" xmlns="http://www.w3.org/2000/svg" xmlns:xlink="http://www.w3.org/1999/xlink" x="0px" y="0px"
	 viewBox="0 0 512 512" style="enable-background:new 0 0 512 512;" xml:space="preserve">
<g>
	<circle cx="450.9" cy="36.7" r="36.7"/>
	<path d="M291.3,246c15-5,25.1-18.9,25.1-34.8v-15.7l46.2,34.6l-9.5,44.2c15.8,6.7,31,14.1,45.4,22.4l13.8-64.1
		c3-13.9-2.4-28.4-13.8-37l-39.7-29.8l50.4-23.3l63.8,48v0c4.4,3.3,9.5,4.9,14.7,4.9c7.4,0,14.7-3.4,19.6-9.8
		c8.1-10.8,6-26.1-4.9-34.2l-85.1-63.8c-10.5-7.9-22.2-14.1-34.7-18.2l-48.7-16.2l-19.9-39.8c-6-12.1-20.7-17-32.8-10.9
		c-12.1,6-17,20.7-10.9,32.8l22.2,44.4c4.4,8.7,11.9,15.2,21.2,18.3l12.5,4.2l-31.5,15.7c-16.7,8.3-27,25.1-27,43.7v40.6L211,221.2
		c-5.5,1.8-9.8,5.4-12.7,9.8c26.7,4.6,54.8,10.6,82.7,18.4L291.3,246z"/>
	<path d="M54.3,247.4c45.5,142.5,311,149.4,399.3,147.7c13.9-0.3,22-15.8,14.4-27.3C387.4,246.4,147.1,227.5,71.8,224.5
		C59.6,224.1,50.6,235.8,54.3,247.4z"/>
	<path d="M499.2,460.3h-12.8c-20.8,0-36.6-6.7-44.9-14.3c-7.1-6.6-15.7-11.3-25.4-11.3h-13c-9.7,0-18.3,4.7-25.4,11.3
		c-8.2,7.6-24,14.3-44.9,14.3s-36.6-6.7-44.9-14.3c-7.1-6.6-15.7-11.3-25.4-11.3h-13c-9.7,0-18.3,4.7-25.4,11.3
		c-8.2,7.6-24,14.3-44.9,14.3c-20.8,0-36.6-6.7-44.9-14.3c-7.1-6.6-15.7-11.3-25.4-11.3h-13c-9.7,0-18.3,4.7-25.4,11.3
		c-8.2,7.6-24,14.3-44.9,14.3H12.8C5.7,460.3,0,466,0,473.1v25.6c0,7.1,5.7,12.8,12.8,12.8h12.8c30.9,0,58.2-9.8,76.8-25.5
		c18.6,15.7,45.9,25.5,76.8,25.5s58.2-9.8,76.8-25.5c18.6,15.7,45.9,25.5,76.8,25.5s58.2-9.8,76.8-25.5
		c18.6,15.7,45.9,25.5,76.8,25.5h12.8c7.1,0,12.8-5.7,12.8-12.8v-25.6C512,466,506.3,460.3,499.2,460.3z"/>
	<path d="M44.6,199.7c2.7,3.2,7,4.6,11,3.4c5.7-1.7,8.8-7.7,7-13.3L48,146c-2.8-8.4-14.1-9.7-18.8-2.2L20,158.6
		c-2.4,3.8-2.1,8.7,0.8,12.2L44.6,199.7z"/>
	<path d="M41,234.3c0-3.9-2.2-7.5-5.6-9.3L16,215L5,228l36,11V234.3z"/>
</g>
</svg>
